<?xml version="1.0" encoding="UTF-8" standalone="no"?>
<svg
   xmlns:dc="http://purl.org/dc/elements/1.1/"
   xmlns:cc="http://creativecommons.org/ns#"
   xmlns:rdf="http://www.w3.org/1999/02/22-rdf-syntax-ns#"
   xmlns:svg="http://www.w3.org/2000/svg"
   xmlns="http://www.w3.org/2000/svg"
   viewBox="0 0 477.33334 278.66666"
   height="278.66666"
   width="477.33334"
   xml:space="preserve"
   id="svg2"
   version="1.1"><metadata
     id="metadata8"><rdf:RDF><cc:Work
         rdf:about=""><dc:format>image/svg+xml</dc:format><dc:type
           rdf:resource="http://purl.org/dc/dcmitype/StillImage" /></cc:Work></rdf:RDF></metadata><defs
     id="defs6" /><g
     transform="matrix(1.3333333,0,0,-1.3333333,0,278.66667)"
     id="g10"><g
       transform="scale(0.1)"
       id="g12"><path
         id="path14"
         style="fill:#6b6e70;fill-opacity:1;fill-rule:evenodd;stroke:none"
         d="m 1397.3,1512.5 c -11.32,64.34 -10.15,126.48 3.52,186.48 13.63,60 37.81,115 72.5,165 34.34,50 77.15,92 128.48,126.02 51.68,33.63 109.49,56.64 173.51,68.98 l -5.51,31.02 c -64.64,-12.03 -124.18,-33.01 -178.51,-63.01 -54.65,-30 -102.97,-67.19 -145,-111.52 -41.99,-44.34 -76.33,-93.99 -102.97,-148.99 -26.68,-55 -44.53,-113.16 -53.52,-174.49 -8.98,-61.68 -7.85,-124.84 3.52,-189.49 11.99,-64.69 32.97,-124.18 62.97,-178.52 30,-54.64 67.34,-103 112.03,-145 44.34,-41.99 93.83,-76.32 148.48,-103 55,-26.64 113.36,-44.5 175,-53.48 61.68,-9.02 124.68,-7.852 189.02,3.48 l -37.5,208.51 c -64.34,-11.33 -126.52,-10.15 -186.52,3.48 -60,13.67 -115,37.85 -165,72.5 -50,34.33 -92,77.34 -125.98,129.02 -33.67,51.33 -56.52,108.99 -68.52,173.01" /><path
         id="path16"
         style="fill:#6b6e70;fill-opacity:1;fill-rule:evenodd;stroke:none"
         d="m 1775.82,2058.98 -6.02,31.02 c -61.99,-11.68 -119.33,-31.52 -171.99,-59.53 -53.01,-28.32 -100.15,-63.48 -141.52,-105.47 -41.33,-41.68 -75.67,-88.36 -102.97,-140 -27.7,-52.03 -47.19,-107.19 -58.52,-165.51 30,-15 61.84,-28.16 95.51,-39.49 -1.99,57.66 5.98,112.97 23.99,165.98 17.65,52.65 43.82,100.5 78.51,143.51 34.34,43.32 75.51,79.65 123.48,108.99 48.01,29.33 101.17,49.49 159.53,60.5" /><path
         id="path18"
         style="fill:#d97035;fill-opacity:1;fill-rule:evenodd;stroke:none"
         d="m 1970.31,1308.98 -18.01,88.99 c 53.01,22.34 90.51,54.53 112.5,96.52 21.02,40.98 23.32,89.34 7,145 -7.35,25.98 -18.17,46.99 -32.5,63.01 -14.34,15.66 -30.32,28.32 -48.01,37.97 -17.66,9.69 -36.49,17.19 -56.49,22.5 -20.35,5 -40,9.18 -58.98,12.5 l -26.52,131.52 c 17.65,1.64 33.82,2.15 48.51,1.49 14.65,-0.67 26.84,-1.84 36.49,-3.48 l 10.5,75 c -15.66,1.99 -32.34,2.97 -50,2.97 -17.65,0 -37.65,-1.64 -60,-5 l -6.01,29.53 c 12.03,0.98 24.02,1.48 36.01,1.48 49.65,-0.35 96.18,-9.64 139.5,-28 43,-18.32 80.86,-43.83 113.51,-76.49 32.66,-32.65 58.17,-70.66 76.49,-114.02 18.67,-42.97 28.16,-89.34 28.51,-138.99 -0.35,-53.98 -11.33,-104.18 -33.01,-150.5 -21.68,-45.98 -51.32,-85.67 -88.98,-118.99 -38.01,-33.01 -81.52,-57.34 -130.51,-73.01 m -83.01,193.01 -28.98,160.98 c 23.32,-5 43.98,-11.84 61.99,-20.47 18.01,-8.36 29.14,-22.03 33.48,-41.02 5,-22.34 2.34,-41.99 -7.97,-58.98 -11.02,-17.7 -30.51,-31.17 -58.52,-40.51 m -380.5,149.49 c 0.35,53.01 11.01,102.15 31.99,147.5 20.66,45.36 49.33,84.5 86.01,117.5 36.68,33.01 78.83,57.66 126.49,73.99 l 5,-30.98 c -38.99,-13.67 -69.34,-32.85 -90.98,-57.5 -21.99,-25 -31.68,-57.5 -29.02,-97.5 1.68,-21.99 7.34,-40.51 17.03,-55.51 9.34,-15.35 21.64,-28 36.99,-38 15,-9.65 31.99,-17.35 50.98,-23.01 19.33,-5.31 38.87,-10 58.51,-13.99 l 28.01,-184.49 c -30,-3.36 -55.86,-4.02 -77.5,-1.99 -21.99,2.3 -39.18,5.82 -51.52,10.47 l -28.48,-126.49 c 16.99,-6.01 40.67,-9.64 70.98,-11.01 30.35,-1.33 65.35,1.37 105,8.01 l 11.01,-74.5 c -48.67,1.33 -94.18,11.33 -136.48,30 -42.34,18.68 -79.53,44.34 -111.52,77 -32,32.34 -57,69.84 -75,112.5 -18.01,42.65 -27.15,88.67 -27.5,138 m 313,134.5 c -21.01,4.33 -38.67,10 -53,16.99 -14.65,7.03 -22.82,17.5 -24.5,31.52 -1.99,14.34 1.02,27.15 8.99,38.48 8.01,11.37 24.33,20 49.02,26.01 l 19.49,-113 m 45,246.01 c -58.98,-0.35 -114.18,-11.52 -165.5,-33.51 -51.33,-22 -96.49,-52.35 -135.51,-90.98 -38.63,-39.02 -68.99,-84.18 -90.98,-135.51 -21.99,-51.01 -33.16,-106.17 -33.51,-165.51 0.35,-58.98 11.52,-114.18 33.51,-165.5 21.99,-51.33 52.35,-96.49 90.98,-135.51 39.02,-38.63 84.18,-68.99 135.51,-90.98 51.32,-21.99 106.52,-33.16 165.5,-33.51 58.99,0.35 114.18,11.52 165.51,33.51 51.33,21.99 96.49,52.35 135.51,90.98 38.63,39.02 68.98,84.18 90.98,135.51 21.99,51.32 33.16,106.52 33.51,165.5 -0.35,58.99 -11.52,114.18 -33.51,165.51 -22,51.33 -52.35,96.49 -90.98,135.51 -39.02,38.63 -84.18,68.98 -135.51,90.98 -51.33,21.99 -106.52,33.16 -165.51,33.51" /><path
         id="path20"
         style="fill:#d97035;fill-opacity:1;fill-rule:evenodd;stroke:none"
         d="m 1819.8,1785.98 c -21.01,4.33 -38.67,10 -53,16.99 -14.65,7.03 -22.82,17.5 -24.5,31.52 -1.99,14.34 1.02,27.15 8.99,38.48 8.01,11.37 24.33,20 49.02,26.01 l 19.49,-113 m -313,-134.5 c 0.35,53.01 11.01,102.15 31.99,147.5 20.66,45.36 49.33,84.5 86.01,117.5 36.68,33.01 78.83,57.66 126.49,73.99 l 5,-30.98 c -38.99,-13.67 -69.34,-32.85 -90.98,-57.5 -21.99,-25 -31.68,-57.5 -29.02,-97.5 1.68,-21.99 7.34,-40.51 17.03,-55.51 9.34,-15.35 21.64,-28 36.99,-38 15,-9.65 31.99,-17.35 50.98,-23.01 19.33,-5.31 38.87,-10 58.51,-13.99 l 18.99,-125.5 c 19.69,3.36 39.02,7.18 58.01,11.52 l -18.48,102.97 c 23.32,-5 43.98,-11.84 61.99,-20.47 18.01,-8.36 29.14,-22.03 33.48,-41.02 1.68,-6.32 2.5,-12.65 2.5,-18.98 42.03,14.65 81.01,31.99 117.03,51.99 -0.35,1.64 -0.86,3.32 -1.52,5 -7.35,25.98 -18.17,46.99 -32.5,63.01 -14.34,15.66 -30.32,28.32 -48.01,37.97 -17.66,9.69 -36.49,17.19 -56.49,22.5 -20.35,5 -40,9.18 -58.98,12.5 l -26.52,131.52 c 17.65,1.64 33.82,2.15 48.51,1.49 14.65,-0.67 26.84,-1.84 36.49,-3.48 l 10.5,75 c -15.66,1.99 -32.34,2.97 -50,2.97 -17.65,0 -37.65,-1.64 -60,-5 l -6.01,29.53 c 12.03,0.98 24.02,1.48 36.01,1.48 56.02,-0.35 107.86,-12.14 155.51,-35.5 47.35,-23.01 87.66,-54.65 120.98,-95 33.36,-40.32 56.83,-86.64 70.51,-138.99 14.02,15.31 26.83,30.98 38.51,46.99 -23.01,48.68 -53.83,91.33 -92.5,128.01 -38.36,36.64 -82.5,65.31 -132.5,85.98 -50,20.66 -103.51,31.17 -160.51,31.52 -58.98,-0.35 -114.18,-11.52 -165.5,-33.51 -51.33,-22 -96.49,-52.35 -135.51,-90.98 -38.63,-39.02 -68.99,-84.18 -90.98,-135.51 -21.99,-51.01 -33.16,-106.17 -33.51,-165.51 0,-13.98 0.66,-27.85 1.99,-41.48 26.01,-6.68 52.85,-12.19 80.51,-16.52 -9.65,32.65 -14.65,66.99 -15,103" /><path
         id="path22"
         style="fill:#da7136;fill-opacity:1;fill-rule:nonzero;stroke:none"
         d="M 909.77,728.91 H 731.48 V 363.441 H 650.551 V 728.91 h -178.75 v 80.93 H 909.77 Z m 382.07,-251.879 c 0,-13.871 -1.8,-26.371 -5.32,-37.5 -3.43,-11.051 -8.08,-20.781 -13.9,-29.222 -5.86,-8.43 -12.62,-15.618 -20.32,-21.559 -7.61,-5.859 -15.62,-10.629 -24.06,-14.371 -8.44,-3.758 -16.99,-6.527 -25.62,-8.289 -8.56,-1.789 -16.68,-2.649 -24.38,-2.649 H 1032.3 c -11.25,0 -23.55,1.95 -36.87,5.938 -13.239,3.941 -25.551,10.391 -36.879,19.371 -11.25,9.059 -20.699,20.781 -28.281,35.16 -7.61,14.449 -11.399,32.18 -11.399,53.121 v 109.688 c 0,20.703 3.789,38.281 11.399,52.66 7.582,14.449 17.031,26.172 28.281,35.152 11.328,9.059 23.64,15.547 36.879,19.528 13.32,3.953 25.62,5.941 36.87,5.941 h 145.94 c 20.71,0 38.32,-3.75 52.81,-11.25 14.57,-7.422 26.33,-16.801 35.32,-28.129 8.94,-11.359 15.39,-23.711 19.37,-37.031 4.06,-13.238 6.1,-25.539 6.1,-36.871 z M 1210.9,586.09 c 0,11.14 -2.81,19.422 -8.44,24.851 -5.55,5.387 -13.59,8.118 -24.22,8.118 h -145.31 c -10.86,0 -19.06,-2.77 -24.69,-8.278 -5.62,-5.551 -8.439,-13.551 -8.439,-24.062 V 477.031 c 0,-10.551 2.819,-18.59 8.439,-24.222 5.63,-5.618 13.83,-8.43 24.69,-8.43 h 145.31 c 11.02,0 19.22,2.812 24.53,8.43 5.39,5.632 8.13,13.671 8.13,24.222 z" /><path
         id="path24"
         style="fill:#da7136;fill-opacity:1;fill-rule:nonzero;stroke:none"
         d="m 1731.56,477.031 c 0,-13.871 -1.79,-26.371 -5.31,-37.5 -3.44,-11.051 -8.09,-20.781 -13.91,-29.222 -5.86,-8.43 -12.61,-15.618 -20.31,-21.559 -7.62,-5.859 -15.62,-10.629 -24.06,-14.371 -8.44,-3.758 -16.95,-6.527 -25.47,-8.289 -8.44,-1.789 -16.52,-2.649 -24.22,-2.649 h -146.09 v 80.938 h 146.09 c 10.82,0 18.91,2.812 24.22,8.43 5.39,5.632 8.12,13.671 8.12,24.222 V 586.09 c 0,11.14 -2.77,19.422 -8.28,24.851 -5.43,5.387 -13.43,8.118 -24.06,8.118 h -145.47 c -10.93,0 -19.22,-2.77 -24.84,-8.278 -5.63,-5.551 -8.44,-13.551 -8.44,-24.062 V 258.121 h -80.94 v 328.598 c 0,13.832 1.76,26.25 5.32,37.191 3.51,11.012 8.2,20.781 14.06,29.211 5.94,8.438 12.73,15.551 20.47,21.41 7.69,5.938 15.7,10.778 24.06,14.528 8.44,3.75 16.95,6.492 25.62,8.281 8.64,1.762 16.65,2.66 24.07,2.66 h 146.09 c 13.95,0 26.41,-1.801 37.34,-5.309 11.02,-3.562 20.71,-8.242 29.07,-14.07 8.43,-5.742 15.62,-12.461 21.56,-20.152 5.94,-7.739 10.78,-15.778 14.53,-24.219 3.75,-8.359 6.45,-16.801 8.13,-25.309 1.75,-8.562 2.65,-16.64 2.65,-24.222 z" /><path
         id="path26"
         style="fill:#da7136;fill-opacity:1;fill-rule:nonzero;stroke:none"
         d="m 2255.31,623.121 c 0,-18.43 -2.3,-34.961 -6.87,-49.531 -4.49,-14.488 -10.63,-27.301 -18.44,-38.43 -7.81,-11.18 -16.84,-20.711 -27.03,-28.601 -10.12,-7.809 -20.74,-14.219 -31.88,-19.219 -11.05,-5 -22.26,-8.668 -33.59,-10.93 -11.25,-2.308 -21.88,-3.441 -31.88,-3.441 H 1922.5 v 81.09 h 183.12 c 10.4,0.711 19.77,2.82 28.13,6.25 8.44,3.441 15.66,8.05 21.72,13.91 6.01,5.82 10.66,12.812 13.91,20.941 3.32,8.199 5,17.539 5,27.961 v 36.719 c -1.06,10.199 -3.25,19.539 -6.57,27.969 -3.24,8.519 -7.73,15.82 -13.43,21.882 -5.75,6.008 -12.66,10.7 -20.79,14.059 -8.04,3.441 -17.34,5.16 -27.97,5.16 h -182.5 c -10.74,0 -18.9,-2.82 -24.53,-8.441 -5.62,-5.547 -8.43,-13.59 -8.43,-24.219 V 363.441 h -80.94 V 696.25 c 0,20.699 3.75,38.32 11.25,52.809 7.58,14.57 17.07,26.332 28.44,35.32 11.32,8.941 23.63,15.391 36.87,19.371 13.32,4.059 25.55,6.09 36.72,6.09 h 183.12 c 18.21,0 34.58,-2.34 49.07,-7.031 14.57,-4.61 27.38,-10.778 38.43,-18.59 11.14,-7.809 20.63,-16.84 28.44,-27.028 7.82,-10.121 14.26,-20.742 19.38,-31.882 5.08,-11.047 8.75,-22.258 10.94,-33.59 2.26,-11.25 3.43,-21.879 3.43,-31.879 z" /><path
         id="path28"
         style="fill:#da7136;fill-opacity:1;fill-rule:nonzero;stroke:none"
         d="m 2653.36,474.84 c 0,-11.168 -1.99,-23.238 -5.94,-36.25 -3.98,-12.93 -10.39,-24.961 -19.22,-36.09 -8.75,-11.172 -20.27,-20.469 -34.53,-27.969 -14.18,-7.422 -31.4,-11.09 -51.72,-11.09 h -146.09 c -11.25,0 -23.4,1.95 -36.41,5.938 -12.93,3.941 -24.96,10.312 -36.09,19.062 -11.06,8.829 -20.31,20.348 -27.81,34.528 -7.43,14.261 -11.1,31.562 -11.1,51.871 0,11.25 1.92,23.359 5.78,36.41 3.95,13.129 10.36,25.199 19.22,36.25 8.83,11.129 20.35,20.469 34.53,27.969 14.26,7.5 31.57,11.25 51.88,11.25 h 146.09 v -77.188 h -146.09 c -11.06,0 -19.61,-3.402 -25.63,-10.152 -5.93,-6.801 -8.9,-15.16 -8.9,-25.16 0,-10.547 3.44,-18.75 10.31,-24.688 6.95,-5.941 15.24,-8.91 24.84,-8.91 h 145.47 c 10.94,0 19.42,3.328 25.47,10 6.02,6.649 9.06,14.93 9.06,24.848 V 588.59 c 0,10.512 -3.28,18.91 -9.84,25.16 -6.56,6.25 -14.8,9.371 -24.69,9.371 H 2364.14 V 700 h 177.81 c 11.14,0 23.17,-1.988 36.1,-5.941 13,-3.981 25.04,-10.387 36.09,-19.219 11.13,-8.75 20.47,-20.27 27.97,-34.531 7.5,-14.18 11.25,-31.399 11.25,-51.719 z" /><path
         id="path30"
         style="fill:#da7136;fill-opacity:1;fill-rule:nonzero;stroke:none"
         d="m 3089.22,331.09 c 0,-13.942 -1.8,-26.442 -5.31,-37.5 -3.44,-11.129 -8.09,-20.86 -13.91,-29.211 -5.86,-8.438 -12.62,-15.629 -20.31,-21.57 -7.62,-5.93 -15.63,-10.778 -24.07,-14.528 -8.43,-3.75 -16.99,-6.48 -25.62,-8.281 -8.55,-1.762 -16.68,-2.66 -24.38,-2.66 h -145.93 v 81.101 h 145.93 c 11.02,0 19.22,2.809 24.54,8.438 5.39,5.543 8.12,13.59 8.12,24.211 v 255.629 c 0,10.511 -2.73,18.511 -8.12,24.062 -5.32,5.508 -13.52,8.278 -24.54,8.278 h -145.93 c -10,0 -17.93,-3.079 -23.75,-9.219 -5.86,-6.168 -8.75,-13.86 -8.75,-23.121 V 477.031 c 0,-10.551 2.81,-18.59 8.43,-24.222 5.63,-5.618 13.83,-8.43 24.69,-8.43 h 145.31 v -80.938 h -145.93 c -7.74,0 -15.86,0.86 -24.38,2.649 -8.55,1.762 -17.03,4.531 -25.47,8.289 -8.36,3.742 -16.36,8.512 -24.06,14.371 -7.62,5.941 -14.33,13.129 -20.16,21.559 -5.85,8.441 -10.54,18.171 -14.06,29.222 -3.55,11.129 -5.31,23.629 -5.31,37.5 v 109.688 c 0,7.582 0.86,15.66 2.66,24.222 1.75,8.508 4.53,16.95 8.28,25.309 3.75,8.441 8.51,16.48 14.37,24.219 5.94,7.691 13.13,14.41 21.56,20.152 8.44,5.828 18.13,10.508 29.07,14.07 11.01,3.508 23.51,5.309 37.5,5.309 h 145.93 c 7.7,0 15.83,-0.898 24.38,-2.66 8.63,-1.789 17.19,-4.531 25.62,-8.281 8.44,-3.75 16.45,-8.59 24.07,-14.528 7.69,-5.859 14.45,-12.972 20.31,-21.41 5.82,-8.43 10.47,-18.199 13.91,-29.211 3.51,-10.941 5.31,-23.359 5.31,-37.191 z" /><path
         id="path32"
         style="fill:#6d6e71;fill-opacity:1;fill-rule:nonzero;stroke:none"
         d="m 152.07,141.801 c 0,-6.25 -0.781,-11.879 -2.34,-16.879 -1.57,-4.922 -3.71,-9.301 -6.41,-13.121 -2.621,-3.75 -5.621,-7 -9.058,-9.692 -3.442,-2.6207 -7.114,-4.8082 -10.942,-6.5582 -3.75,-1.6797 -7.582,-2.9297 -11.41,-3.75 -3.859,-0.75 -7.5,-1.1016 -10.93,-1.1016 H 38.6289 V 118.359 H 100.98 c 3.508,0.192 6.719,0.86 9.532,2.032 2.886,1.25 5.386,2.847 7.5,4.839 2.066,1.961 3.668,4.301 4.84,7.04 1.128,2.808 1.718,5.968 1.718,9.531 v 12.648 c -0.429,3.442 -1.211,6.602 -2.34,9.531 -1.179,2.899 -2.742,5.36 -4.691,7.348 -1.879,2.07 -4.219,3.672 -7.027,4.844 -2.742,1.129 -5.903,1.719 -9.532,1.719 H 38.7891 c -3.668,0 -6.4883,-0.942 -8.4375,-2.813 -1.8711,-1.879 -2.8125,-4.648 -2.8125,-8.277 V 53.3594 H 0.0390625 V 166.801 c 0,7.07 1.2499975,13.039 3.7499975,17.969 2.58203,5 5.82032,8.98 9.69144,12.031 3.8203,3 8,5.187 12.5,6.558 4.5703,1.442 8.789,2.192 12.6484,2.192 H 100.98 c 6.25,0 11.79,-0.86 16.719,-2.5 5,-1.571 9.371,-3.711 13.121,-6.41 3.828,-2.621 7.071,-5.621 9.692,-9.063 2.687,-3.437 4.879,-7.109 6.558,-10.937 1.758,-3.75 3.008,-7.582 3.75,-11.411 0.821,-3.859 1.25,-7.46 1.25,-10.781 z m 120.551,-1.25 H 210.59 c -3.75,0 -6.641,-0.942 -8.602,-2.821 -1.867,-1.871 -2.808,-4.64 -2.808,-8.281 V 53.3594 h -27.5 v 76.0896 c 0,4.692 0.55,8.91 1.718,12.66 1.25,3.75 2.852,7.071 4.84,10 2.071,2.891 4.422,5.352 7.032,7.34 2.582,1.961 5.32,3.602 8.128,4.852 2.891,1.32 5.821,2.258 8.75,2.808 2.891,0.621 5.661,0.942 8.282,0.942 h 62.191 z" /><path
         id="path34"
         style="fill:#6d6e71;fill-opacity:1;fill-rule:nonzero;stroke:none"
         d="m 415.199,92.1094 c 0,-4.8086 -0.629,-9.0586 -1.879,-12.8086 -1.172,-3.75 -2.769,-7.1094 -4.84,-10 -2,-2.8203 -4.3,-5.2813 -6.878,-7.3516 -2.622,-1.9883 -5.391,-3.5898 -8.282,-4.8398 -2.808,-1.25 -5.699,-2.1875 -8.59,-2.8086 -2.929,-0.6289 -5.71,-0.9414 -8.281,-0.9414 h -49.847 c -3.872,0 -8.051,0.6601 -12.5,2.0312 -4.493,1.3282 -8.672,3.5196 -12.5,6.5586 -3.872,3.1289 -7.114,7.1094 -9.692,12.0313 -2.609,4.8906 -3.898,10.9414 -3.898,18.1289 v 37.3396 c 0,7.071 1.289,13.051 3.898,17.973 2.578,4.879 5.82,8.828 9.692,11.879 3.828,3.121 8.007,5.347 12.5,6.719 4.449,1.32 8.628,2.031 12.5,2.031 h 49.847 c 7.071,0 13.039,-1.332 17.961,-3.91 5,-2.5 8.988,-5.7 12.039,-9.532 3,-3.871 5.192,-8.089 6.563,-12.66 1.437,-4.488 2.187,-8.668 2.187,-12.5 z m -27.66,37.1916 c 0,3.75 -1.019,6.558 -2.969,8.429 -1.871,1.879 -4.609,2.821 -8.121,2.821 H 326.91 c -3.75,0 -6.558,-0.942 -8.43,-2.821 -1.878,-1.871 -2.82,-4.64 -2.82,-8.281 V 92.1094 c 0,-3.668 0.942,-6.4102 2.82,-8.2813 1.872,-1.8789 4.68,-2.8086 8.43,-2.8086 h 49.539 c 3.75,0 6.481,0.9297 8.281,2.8086 1.872,1.8711 2.809,4.6133 2.809,8.2813 z" /><path
         id="path36"
         style="fill:#6d6e71;fill-opacity:1;fill-rule:nonzero;stroke:none"
         d="m 549.648,53.3594 h -74.847 c -3.86,0 -8.039,0.6601 -12.5,2.0312 -4.492,1.3282 -8.672,3.5196 -12.5,6.5586 -3.86,3.1289 -7.102,7.1094 -9.68,12.0313 -2.621,4.8906 -3.91,10.9414 -3.91,18.1289 v 37.3396 c 0,2.582 0.238,5.352 0.777,8.281 0.633,2.891 1.563,5.79 2.813,8.598 1.328,2.891 3.008,5.66 5,8.281 2.078,2.582 4.539,4.879 7.347,6.871 2.891,1.961 6.25,3.52 10,4.692 3.75,1.25 7.973,1.879 12.653,1.879 h 74.847 v -27.5 h -74.847 c -3.551,0 -6.25,-0.942 -8.121,-2.821 -1.879,-1.871 -2.809,-4.679 -2.809,-8.429 V 92.1094 c 0,-3.668 0.93,-6.4102 2.809,-8.2813 1.871,-1.8789 4.691,-2.8086 8.441,-2.8086 h 74.527 z" /><path
         id="path38"
         style="fill:#6d6e71;fill-opacity:1;fill-rule:nonzero;stroke:none"
         d="m 695.309,130.078 c 0,-3.867 -0.7,-8.047 -2.028,-12.5 -1.371,-4.379 -3.551,-8.437 -6.562,-12.187 -3.047,-3.75 -6.989,-6.9496 -11.879,-9.5316 -4.801,-2.5 -10.621,-3.75 -17.5,-3.75 H 607.5 v 26.2496 h 49.84 c 3.75,0 6.609,1.129 8.601,3.442 2.071,2.258 3.118,5.078 3.118,8.429 0,3.641 -1.168,6.45 -3.438,8.442 -2.301,2.066 -5.07,3.129 -8.281,3.129 H 607.5 c -3.75,0 -6.68,-1.18 -8.75,-3.442 -1.988,-2.308 -2.969,-5.121 -2.969,-8.437 V 91.3281 c 0,-3.6679 1.129,-6.5273 3.438,-8.5976 2.261,-2.1094 5.082,-3.1211 8.441,-3.1211 h 49.68 v -26.25 H 607.5 c -3.871,0 -8.051,0.6601 -12.5,2.0312 -4.379,1.3282 -8.441,3.5196 -12.191,6.5586 -3.75,3.0117 -6.95,6.9219 -9.528,11.7227 -2.5,4.8789 -3.75,10.7773 -3.75,17.6562 v 38.7499 c 0,3.832 0.668,7.973 2.028,12.344 1.332,4.457 3.48,8.598 6.41,12.348 3.011,3.75 6.953,6.871 11.871,9.371 4.89,2.578 10.781,3.91 17.66,3.91 h 49.84 c 3.75,0 7.82,-0.711 12.191,-2.031 4.449,-1.372 8.59,-3.559 12.348,-6.571 3.82,-2.929 7.031,-6.828 9.531,-11.719 2.57,-4.8 3.899,-10.699 3.899,-17.652 z" /><path
         id="path40"
         style="fill:#6d6e71;fill-opacity:1;fill-rule:nonzero;stroke:none"
         d="m 825.078,92.1094 c 0,-4.8086 -0.629,-9.0586 -1.879,-12.8086 -1.168,-3.75 -2.769,-7.1094 -4.84,-10 -1.988,-2.8203 -4.3,-5.2813 -6.879,-7.3516 -2.609,-1.9883 -5.39,-3.5898 -8.281,-4.8398 -2.808,-1.25 -5.699,-2.1875 -8.59,-2.8086 -2.929,-0.6289 -5.699,-0.9414 -8.281,-0.9414 h -74.687 v 27.6601 h 74.379 c 3.75,0 6.558,0.9297 8.429,2.8086 1.961,1.8711 2.973,4.6133 2.973,8.2813 -0.313,7.3789 -4.024,11.0896 -11.094,11.0896 H 743.52 c -6.059,0 -11.219,1.02 -15.469,3.129 -4.301,2.07 -7.781,4.692 -10.473,7.813 -2.617,3.199 -4.488,6.64 -5.629,10.308 -1.168,3.75 -1.719,7.231 -1.719,10.473 0,6.129 1.098,11.289 3.29,15.469 2.179,4.257 4.921,7.699 8.281,10.308 3.32,2.582 6.91,4.461 10.777,5.629 3.832,1.133 7.5,1.723 10.942,1.723 h 67.808 v -27.5 h -67.656 c -1.371,0 -2.461,-0.16 -3.281,-0.473 -0.86,-0.308 -1.481,-0.777 -1.871,-1.406 -0.321,-0.551 -0.551,-1.094 -0.629,-1.723 -0.121,-0.539 -0.161,-1.09 -0.161,-1.719 0.079,-1.171 0.321,-2.031 0.629,-2.652 0.391,-0.629 0.86,-1.098 1.411,-1.406 0.5,-0.231 1.089,-0.391 1.71,-0.473 0.711,0 1.411,0 2.04,0 h 42.808 c 7.07,0 13.051,-1.32 17.973,-3.898 5,-2.5 8.98,-5.711 12.027,-9.531 3.012,-3.872 5.192,-8.09 6.563,-12.661 1.449,-4.488 2.187,-8.6676 2.187,-12.4996 z" /><path
         id="path42"
         style="fill:#6d6e71;fill-opacity:1;fill-rule:nonzero;stroke:none"
         d="m 955.43,92.1094 c 0,-4.8086 -0.629,-9.0586 -1.879,-12.8086 -1.172,-3.75 -2.77,-7.1094 -4.84,-10 -1.992,-2.8203 -4.301,-5.2813 -6.871,-7.3516 -2.621,-1.9883 -5.391,-3.5898 -8.289,-4.8398 -2.813,-1.25 -5.699,-2.1875 -8.59,-2.8086 -2.93,-0.6289 -5.699,-0.9414 -8.281,-0.9414 h -74.692 v 27.6601 h 74.383 c 3.75,0 6.559,0.9297 8.43,2.8086 1.961,1.8711 2.969,4.6133 2.969,8.2813 -0.309,7.3789 -4.02,11.0896 -11.09,11.0896 h -42.809 c -6.062,0 -11.211,1.02 -15.473,3.129 -4.296,2.07 -7.777,4.692 -10.468,7.813 -2.621,3.199 -4.489,6.64 -5.629,10.308 -1.172,3.75 -1.711,7.231 -1.711,10.473 0,6.129 1.09,11.289 3.281,15.469 2.18,4.257 4.918,7.699 8.277,10.308 3.321,2.582 6.911,4.461 10.782,5.629 3.832,1.133 7.5,1.723 10.941,1.723 h 67.809 v -27.5 h -67.66 c -1.36,0 -2.461,-0.16 -3.282,-0.473 -0.859,-0.308 -1.476,-0.777 -1.867,-1.406 -0.32,-0.551 -0.551,-1.094 -0.633,-1.723 -0.117,-0.539 -0.148,-1.09 -0.148,-1.719 0.07,-1.171 0.308,-2.031 0.621,-2.652 0.391,-0.629 0.859,-1.098 1.41,-1.406 0.5,-0.231 1.09,-0.391 1.719,-0.473 0.699,0 1.398,0 2.031,0 h 42.809 c 7.07,0 13.05,-1.32 17.968,-3.898 5,-2.5 8.981,-5.711 12.032,-9.531 3.011,-3.872 5.199,-8.09 6.558,-12.661 1.453,-4.488 2.192,-8.6676 2.192,-12.4996 z" /><path
         id="path44"
         style="fill:#6d6e71;fill-opacity:1;fill-rule:nonzero;stroke:none"
         d="m 1093.32,91.3281 c 0,-3.8672 -0.7,-7.9687 -2.03,-12.3476 -1.37,-4.3711 -3.56,-8.5117 -6.56,-12.3399 -3.05,-3.75 -7,-6.9492 -11.88,-9.5312 -4.8,-2.5 -10.62,-3.75 -17.5,-3.75 h -49.84 c -3.87,0 -7.971,0.6601 -12.35,2.0312 -4.371,1.3282 -8.512,3.5196 -12.34,6.5586 -3.75,3.0117 -6.949,6.9219 -9.531,11.7227 -2.5,4.8789 -3.75,10.7773 -3.75,17.6562 0,3.8321 0.66,7.9727 2.031,12.3439 1.328,4.449 3.52,8.598 6.559,12.348 3.012,3.82 6.922,7.031 11.723,9.531 4.878,2.57 10.777,3.898 17.658,3.898 h 49.84 v -26.25 h -49.84 c -3.75,0 -6.682,-1.211 -8.748,-3.5896 -1.992,-2.3086 -2.973,-5.1211 -2.973,-8.4375 0,-3.6719 1.133,-6.5235 3.441,-8.5938 2.379,-1.9883 5.23,-2.9687 8.59,-2.9687 h 49.53 c 3.75,0 6.6,1.1289 8.6,3.4414 2.07,2.2578 3.12,5.1484 3.12,8.5898 v 38.4374 c 0,3.633 -1.17,6.481 -3.44,8.594 -2.18,2.066 -4.96,3.129 -8.28,3.129 h -60.62 v 26.25 h 60.62 c 3.75,0 7.81,-0.711 12.19,-2.031 4.45,-1.372 8.59,-3.559 12.34,-6.571 3.83,-2.929 7.03,-6.828 9.53,-11.719 2.58,-4.8 3.91,-10.699 3.91,-17.652 z" /><path
         id="path46"
         style="fill:#6d6e71;fill-opacity:1;fill-rule:nonzero;stroke:none"
         d="m 1242.89,92.1094 c 0,-4.8086 -0.62,-9.0586 -1.87,-12.8086 -1.18,-3.75 -2.74,-7.1094 -4.69,-10 -1.99,-2.8203 -4.3,-5.2813 -6.88,-7.3516 -2.61,-1.9883 -5.39,-3.5898 -8.28,-4.8398 -2.81,-1.25 -5.7,-2.1875 -8.59,-2.8086 -2.93,-0.6289 -5.74,-0.9414 -8.44,-0.9414 h -49.69 c -4.8,0 -9.06,0.5508 -12.81,1.7187 -3.75,1.25 -7.11,2.8516 -10,4.8438 -2.81,2.0664 -5.23,4.4179 -7.19,7.0273 -1.99,2.5821 -3.67,5.3203 -5,8.1289 -1.25,2.8907 -2.18,5.8203 -2.81,8.75 -0.55,2.8907 -0.78,5.6602 -0.78,8.2813 v 37.3396 c 0,7.071 1.25,13.051 3.75,17.973 2.58,4.879 5.82,8.828 9.69,11.879 3.82,3.121 8,5.347 12.5,6.719 4.57,1.32 8.79,2.031 12.65,2.031 h 49.69 v -27.5 h -49.53 c -3.67,0 -6.49,-0.942 -8.44,-2.821 -1.87,-1.871 -2.81,-4.64 -2.81,-8.281 V 92.2695 c 0,-3.75 0.94,-6.5703 2.81,-8.4414 1.88,-1.8789 4.61,-2.8086 8.28,-2.8086 h 49.69 c 3.75,0 6.56,0.9297 8.44,2.8086 1.87,1.8711 2.81,4.6133 2.81,8.2813 V 216.641 h 27.5 z" /><path
         id="path48"
         style="fill:#6d6e71;fill-opacity:1;fill-rule:nonzero;stroke:none"
         d="m 1394.41,92.1094 c 0,-4.8086 -0.62,-9.0586 -1.87,-12.8086 -1.17,-3.75 -2.77,-7.1094 -4.84,-10 -2,-2.8203 -4.3,-5.2813 -6.88,-7.3516 -2.62,-1.9883 -5.39,-3.5898 -8.28,-4.8398 -2.81,-1.25 -5.7,-2.1875 -8.59,-2.8086 -2.93,-0.6289 -5.71,-0.9414 -8.29,-0.9414 h -49.84 c -3.87,0 -8.05,0.6601 -12.5,2.0312 -4.49,1.3282 -8.67,3.5196 -12.5,6.5586 -3.87,3.1289 -7.11,7.1094 -9.69,12.0313 -2.61,4.8906 -3.9,10.9414 -3.9,18.1289 v 37.3396 c 0,7.071 1.29,13.051 3.9,17.973 2.58,4.879 5.82,8.828 9.69,11.879 3.83,3.121 8.01,5.347 12.5,6.719 4.45,1.32 8.63,2.031 12.5,2.031 h 49.84 c 7.07,0 13.05,-1.332 17.97,-3.91 5,-2.5 8.99,-5.7 12.03,-9.532 3.01,-3.871 5.2,-8.089 6.57,-12.66 1.44,-4.488 2.18,-8.668 2.18,-12.5 z m -27.65,37.1916 c 0,3.75 -1.02,6.558 -2.97,8.429 -1.88,1.879 -4.61,2.821 -8.13,2.821 h -49.53 c -3.75,0 -6.56,-0.942 -8.43,-2.821 -1.88,-1.871 -2.82,-4.64 -2.82,-8.281 V 92.1094 c 0,-3.668 0.94,-6.4102 2.82,-8.2813 1.87,-1.8789 4.68,-2.8086 8.43,-2.8086 h 49.53 c 3.75,0 6.49,0.9297 8.29,2.8086 1.87,1.8711 2.81,4.6133 2.81,8.2813 z" /><path
         id="path50"
         style="fill:#6d6e71;fill-opacity:1;fill-rule:nonzero;stroke:none"
         d="m 1518.09,140.551 h -62.04 c -3.75,0 -6.64,-0.942 -8.59,-2.821 -1.87,-1.871 -2.81,-4.64 -2.81,-8.281 V 53.3594 h -27.5 v 76.0896 c 0,4.692 0.55,8.91 1.72,12.66 1.25,3.75 2.85,7.071 4.84,10 2.07,2.891 4.41,5.352 7.03,7.34 2.58,1.961 5.31,3.602 8.13,4.852 2.89,1.32 5.82,2.258 8.75,2.808 2.89,0.621 5.66,0.942 8.28,0.942 h 62.19 z" /><path
         id="path52"
         style="fill:#6d6e71;fill-opacity:1;fill-rule:nonzero;stroke:none"
         d="m 1645.74,91.3281 c 0,-3.8672 -0.7,-7.9687 -2.03,-12.3476 -1.37,-4.3711 -3.55,-8.5117 -6.56,-12.3399 -3.05,-3.75 -6.99,-6.9492 -11.88,-9.5312 -4.8,-2.5 -10.62,-3.75 -17.5,-3.75 h -49.84 c -3.87,0 -7.97,0.6601 -12.34,2.0312 -4.38,1.3282 -8.52,3.5196 -12.35,6.5586 -3.75,3.0117 -6.95,6.9219 -9.53,11.7227 -2.5,4.8789 -3.75,10.7773 -3.75,17.6562 0,3.8321 0.66,7.9727 2.03,12.3439 1.33,4.449 3.52,8.598 6.56,12.348 3.01,3.82 6.92,7.031 11.72,9.531 4.89,2.57 10.78,3.898 17.66,3.898 h 49.84 v -26.25 h -49.84 c -3.75,0 -6.68,-1.211 -8.75,-3.5896 -1.99,-2.3086 -2.97,-5.1211 -2.97,-8.4375 0,-3.6719 1.13,-6.5235 3.44,-8.5938 2.38,-1.9883 5.23,-2.9687 8.59,-2.9687 h 49.53 c 3.75,0 6.61,1.1289 8.6,3.4414 2.07,2.2578 3.12,5.1484 3.12,8.5898 v 38.4374 c 0,3.633 -1.17,6.481 -3.44,8.594 -2.18,2.066 -4.96,3.129 -8.28,3.129 h -60.62 v 26.25 h 60.62 c 3.75,0 7.82,-0.711 12.19,-2.031 4.45,-1.372 8.59,-3.559 12.34,-6.571 3.83,-2.929 7.04,-6.828 9.54,-11.719 2.57,-4.8 3.9,-10.699 3.9,-17.652 z" /><path
         id="path54"
         style="fill:#6d6e71;fill-opacity:1;fill-rule:nonzero;stroke:none"
         d="m 1866.25,92.1094 c 0,-4.8086 -0.63,-9.0586 -1.87,-12.8086 -1.18,-3.75 -2.74,-7.1094 -4.69,-10 -1.99,-2.8203 -4.3,-5.2813 -6.88,-7.3516 -2.61,-1.9883 -5.39,-3.5898 -8.28,-4.8398 -2.81,-1.25 -5.7,-2.1875 -8.59,-2.8086 -2.93,-0.6289 -5.74,-0.9414 -8.44,-0.9414 h -49.69 c -4.8,0 -9.06,0.5508 -12.81,1.7187 -3.75,1.25 -7.11,2.8516 -10,4.8438 -2.81,2.0664 -5.23,4.4179 -7.19,7.0273 -1.99,2.5821 -3.67,5.3203 -5,8.1289 -1.25,2.8907 -2.19,5.8203 -2.81,8.75 -0.55,2.8907 -0.78,5.6602 -0.78,8.2813 v 37.3396 c 0,7.071 1.25,13.051 3.75,17.973 2.58,4.879 5.82,8.828 9.69,11.879 3.82,3.121 8,5.347 12.5,6.719 4.57,1.32 8.79,2.031 12.65,2.031 h 49.69 v -27.5 h -49.53 c -3.67,0 -6.49,-0.942 -8.44,-2.821 -1.87,-1.871 -2.81,-4.64 -2.81,-8.281 V 92.2695 c 0,-3.75 0.94,-6.5703 2.81,-8.4414 1.88,-1.8789 4.61,-2.8086 8.28,-2.8086 h 49.69 c 3.75,0 6.56,0.9297 8.44,2.8086 1.87,1.8711 2.81,4.6133 2.81,8.2813 V 216.641 h 27.5 z" /><path
         id="path56"
         style="fill:#6d6e71;fill-opacity:1;fill-rule:nonzero;stroke:none"
         d="m 2016.37,130.078 c 0,-3.867 -0.71,-8.047 -2.03,-12.5 -1.37,-4.379 -3.56,-8.437 -6.57,-12.187 -3.04,-3.75 -6.99,-6.9496 -11.87,-9.5316 -4.81,-2.5 -10.63,-3.75 -17.5,-3.75 h -49.85 v 26.2496 h 49.85 c 3.75,0 6.6,1.129 8.59,3.442 2.07,2.258 3.13,5.078 3.13,8.429 0,3.641 -1.17,6.45 -3.44,8.442 -2.3,2.066 -5.08,3.129 -8.28,3.129 h -49.85 c -3.75,0 -6.67,-1.18 -8.75,-3.442 -1.99,-2.308 -2.96,-5.121 -2.96,-8.437 V 91.3281 c 0,-3.6679 1.13,-6.5273 3.43,-8.5976 2.27,-2.1094 5.08,-3.1211 8.44,-3.1211 h 49.69 v -26.25 h -49.85 c -3.86,0 -8.04,0.6601 -12.5,2.0312 -4.37,1.3282 -8.43,3.5196 -12.18,6.5586 -3.75,3.0117 -6.96,6.9219 -9.53,11.7227 -2.5,4.8789 -3.75,10.7773 -3.75,17.6562 v 38.7499 c 0,3.832 0.66,7.973 2.03,12.344 1.33,4.457 3.47,8.598 6.4,12.348 3.01,3.75 6.96,6.871 11.88,9.371 4.88,2.578 10.78,3.91 17.65,3.91 h 49.85 c 3.75,0 7.81,-0.711 12.19,-2.031 4.45,-1.372 8.59,-3.559 12.34,-6.571 3.83,-2.929 7.03,-6.828 9.53,-11.719 2.58,-4.8 3.91,-10.699 3.91,-17.652 z" /><path
         id="path58"
         style="fill:#6d6e71;fill-opacity:1;fill-rule:nonzero;stroke:none"
         d="m 2260.78,141.801 c 0,-6.25 -0.78,-11.879 -2.34,-16.879 -1.56,-4.922 -3.71,-9.301 -6.41,-13.121 -2.62,-3.75 -5.62,-7 -9.06,-9.692 -3.44,-2.6207 -7.11,-4.8082 -10.94,-6.5582 -3.75,-1.6797 -7.58,-2.9297 -11.41,-3.75 -3.86,-0.75 -7.5,-1.1016 -10.93,-1.1016 h -62.35 v 27.6598 h 62.35 c 3.51,0.192 6.72,0.86 9.53,2.032 2.89,1.25 5.39,2.847 7.5,4.839 2.07,1.961 3.67,4.301 4.84,7.04 1.14,2.808 1.72,5.968 1.72,9.531 v 12.648 c -0.43,3.442 -1.21,6.602 -2.34,9.531 -1.17,2.899 -2.74,5.36 -4.69,7.348 -1.87,2.07 -4.22,3.672 -7.03,4.844 -2.74,1.129 -5.9,1.719 -9.53,1.719 h -62.19 c -3.67,0 -6.48,-0.942 -8.44,-2.813 -1.87,-1.879 -2.81,-4.648 -2.81,-8.277 V 53.3594 h -27.5 V 166.801 c 0,7.07 1.25,13.039 3.75,17.969 2.58,5 5.82,8.98 9.69,12.031 3.83,3 8.01,5.187 12.5,6.558 4.57,1.442 8.79,2.192 12.65,2.192 h 62.35 c 6.25,0 11.79,-0.86 16.72,-2.5 5,-1.571 9.37,-3.711 13.12,-6.41 3.83,-2.621 7.07,-5.621 9.69,-9.063 2.69,-3.437 4.88,-7.109 6.56,-10.937 1.76,-3.75 3.01,-7.582 3.75,-11.411 0.82,-3.859 1.25,-7.46 1.25,-10.781 z" /><path
         id="path60"
         style="fill:#6d6e71;fill-opacity:1;fill-rule:nonzero;stroke:none"
         d="m 2396.48,91.3281 c 0,-3.8672 -0.7,-7.9687 -2.03,-12.3476 -1.36,-4.3711 -3.55,-8.5117 -6.56,-12.3399 -3.05,-3.75 -6.99,-6.9492 -11.87,-9.5312 -4.81,-2.5 -10.63,-3.75 -17.5,-3.75 h -49.85 c -3.87,0 -7.97,0.6601 -12.34,2.0312 -4.38,1.3282 -8.52,3.5196 -12.35,6.5586 -3.75,3.0117 -6.95,6.9219 -9.53,11.7227 -2.5,4.8789 -3.75,10.7773 -3.75,17.6562 0,3.8321 0.67,7.9727 2.03,12.3439 1.33,4.449 3.52,8.598 6.57,12.348 3,3.82 6.91,7.031 11.72,9.531 4.88,2.57 10.78,3.898 17.65,3.898 h 49.85 v -26.25 h -49.85 c -3.75,0 -6.68,-1.211 -8.75,-3.5896 -1.99,-2.3086 -2.97,-5.1211 -2.97,-8.4375 0,-3.6719 1.14,-6.5235 3.44,-8.5938 2.38,-1.9883 5.23,-2.9687 8.59,-2.9687 h 49.54 c 3.75,0 6.6,1.1289 8.59,3.4414 2.07,2.2578 3.12,5.1484 3.12,8.5898 v 38.4374 c 0,3.633 -1.17,6.481 -3.43,8.594 -2.19,2.066 -4.96,3.129 -8.28,3.129 h -60.63 v 26.25 h 60.63 c 3.75,0 7.81,-0.711 12.18,-2.031 4.46,-1.372 8.6,-3.559 12.35,-6.571 3.83,-2.929 7.03,-6.828 9.53,-11.719 2.58,-4.8 3.9,-10.699 3.9,-17.652 z" /><path
         id="path62"
         style="fill:#6d6e71;fill-opacity:1;fill-rule:nonzero;stroke:none"
         d="m 2545.16,42.2695 c 0,-4.6875 -0.63,-8.9101 -1.88,-12.6601 -1.17,-3.8281 -2.77,-7.1875 -4.84,-10 -1.99,-2.8906 -4.3,-5.3477 -6.88,-7.3399 -2.61,-2.0703 -5.39,-3.74997 -8.28,-4.99997 -2.81,-1.25 -5.7,-2.1875 -8.59,-2.82031 -2.93,-0.61719 -5.71,-0.92969 -8.28,-0.92969 h -49.85 V 31.1719 h 49.85 c 3.75,0 6.48,1.0195 8.28,2.9687 1.87,1.8789 2.81,4.6094 2.81,8.1289 v 87.1795 c 0,3.641 -0.94,6.41 -2.81,8.281 -1.8,1.879 -4.53,2.821 -8.28,2.821 h -49.85 c -3.36,0 -6.01,-1.063 -7.97,-3.129 -1.99,-2.113 -2.97,-4.762 -2.97,-7.973 V 92.1094 c 0,-3.668 0.94,-6.4102 2.82,-8.2813 1.87,-1.8789 4.68,-2.8086 8.44,-2.8086 h 49.53 V 53.3594 h -49.85 c -2.61,0 -5.39,0.3125 -8.28,0.9414 -2.93,0.6211 -5.86,1.5586 -8.75,2.8086 -2.81,1.25 -5.55,2.8515 -8.12,4.8398 -2.62,2.0703 -4.93,4.5313 -6.88,7.3516 -1.99,2.8906 -3.59,6.25 -4.84,10 -1.17,3.75 -1.72,8 -1.72,12.8086 v 37.3396 c 0,2.582 0.23,5.352 0.78,8.281 0.63,2.891 1.56,5.79 2.81,8.598 1.33,2.891 3.01,5.66 5,8.281 2.07,2.582 4.53,4.879 7.35,6.871 2.89,1.961 6.25,3.52 10,4.692 3.75,1.25 7.97,1.879 12.65,1.879 h 49.85 c 2.57,0 5.35,-0.321 8.28,-0.942 2.89,-0.55 5.78,-1.488 8.59,-2.808 2.89,-1.25 5.67,-2.891 8.28,-4.852 2.58,-1.988 4.89,-4.449 6.88,-7.34 2.07,-2.929 3.67,-6.25 4.84,-10 1.25,-3.75 1.88,-7.968 1.88,-12.66 z" /><path
         id="path64"
         style="fill:#6d6e71;fill-opacity:1;fill-rule:nonzero;stroke:none"
         d="m 2689.06,91.3281 c 0,-3.8672 -0.7,-7.9687 -2.03,-12.3476 -1.37,-4.3711 -3.55,-8.5117 -6.56,-12.3399 -3.05,-3.75 -6.99,-6.9492 -11.88,-9.5312 -4.8,-2.5 -10.62,-3.75 -17.5,-3.75 h -49.84 c -3.87,0 -7.97,0.6601 -12.34,2.0312 -4.38,1.3282 -8.52,3.5196 -12.35,6.5586 -3.75,3.0117 -6.95,6.9219 -9.53,11.7227 -2.5,4.8789 -3.75,10.7773 -3.75,17.6562 0,3.8321 0.67,7.9727 2.03,12.3439 1.33,4.449 3.52,8.598 6.57,12.348 3,3.82 6.91,7.031 11.71,9.531 4.89,2.57 10.79,3.898 17.66,3.898 h 49.84 v -26.25 h -49.84 c -3.75,0 -6.68,-1.211 -8.75,-3.5896 -1.99,-2.3086 -2.97,-5.1211 -2.97,-8.4375 0,-3.6719 1.13,-6.5235 3.44,-8.5938 2.38,-1.9883 5.23,-2.9687 8.59,-2.9687 h 49.53 c 3.75,0 6.61,1.1289 8.6,3.4414 2.07,2.2578 3.12,5.1484 3.12,8.5898 v 38.4374 c 0,3.633 -1.17,6.481 -3.43,8.594 -2.19,2.066 -4.97,3.129 -8.29,3.129 h -60.62 v 26.25 h 60.62 c 3.75,0 7.82,-0.711 12.19,-2.031 4.45,-1.372 8.6,-3.559 12.34,-6.571 3.83,-2.929 7.04,-6.828 9.54,-11.719 2.57,-4.8 3.9,-10.699 3.9,-17.652 z" /><path
         id="path66"
         style="fill:#6d6e71;fill-opacity:1;fill-rule:nonzero;stroke:none"
         d="m 2815.23,53.3594 h -27.5 v 76.0896 c 0,3.641 -1.01,6.41 -2.96,8.281 -1.88,1.879 -4.69,2.821 -8.44,2.821 h -35.94 V 53.3594 h -27.5 V 154.449 c 0,1.879 0.31,3.641 0.94,5.321 0.7,1.64 1.72,3.121 2.97,4.371 1.32,1.25 2.85,2.187 4.53,2.808 1.64,0.711 3.47,1.102 5.47,1.102 h 49.68 c 3.83,0 7.97,-0.711 12.35,-2.031 4.37,-1.372 8.51,-3.52 12.5,-6.411 v 8.442 h 37.34 c 2.7,0 5.47,-0.321 8.28,-0.942 2.89,-0.55 5.78,-1.488 8.6,-2.808 2.89,-1.25 5.66,-2.891 8.28,-4.852 2.58,-1.988 4.88,-4.449 6.87,-7.34 2.07,-2.929 3.68,-6.25 4.85,-10 1.25,-3.75 1.87,-7.968 1.87,-12.66 V 53.3594 h -27.65 v 76.0896 c 0,3.641 -0.94,6.41 -2.82,8.281 -1.79,1.879 -4.53,2.821 -8.28,2.821 h -24.84 c 0.94,-3.442 1.4,-7.153 1.4,-11.102 z" /><path
         id="path68"
         style="fill:#6d6e71;fill-opacity:1;fill-rule:nonzero;stroke:none"
         d="m 3026.13,130.078 c 0,-3.867 -0.7,-8.047 -2.03,-12.5 -1.37,-4.379 -3.55,-8.437 -6.56,-12.187 -3.05,-3.75 -6.99,-6.9496 -11.88,-9.5316 -4.8,-2.5 -10.62,-3.75 -17.5,-3.75 h -49.84 v 26.2496 h 49.84 c 3.75,0 6.61,1.129 8.6,3.442 2.07,2.258 3.12,5.078 3.12,8.429 0,3.641 -1.17,6.45 -3.43,8.442 -2.31,2.066 -5.08,3.129 -8.29,3.129 h -49.84 c -3.75,0 -6.68,-1.18 -8.75,-3.442 -1.99,-2.308 -2.97,-5.121 -2.97,-8.437 V 91.3281 c 0,-3.6679 1.13,-6.5273 3.44,-8.5976 2.26,-2.1094 5.08,-3.1211 8.44,-3.1211 h 49.68 v -26.25 h -49.84 c -3.87,0 -8.05,0.6601 -12.5,2.0312 -4.37,1.3282 -8.44,3.5196 -12.19,6.5586 -3.75,3.0117 -6.95,6.9219 -9.53,11.7227 -2.5,4.8789 -3.75,10.7773 -3.75,17.6562 v 38.7499 c 0,3.832 0.67,7.973 2.03,12.344 1.33,4.457 3.48,8.598 6.41,12.348 3.01,3.75 6.95,6.871 11.87,9.371 4.89,2.578 10.79,3.91 17.66,3.91 h 49.84 c 3.75,0 7.82,-0.711 12.19,-2.031 4.45,-1.372 8.6,-3.559 12.35,-6.571 3.82,-2.929 7.03,-6.828 9.53,-11.719 2.57,-4.8 3.9,-10.699 3.9,-17.652 z" /><path
         id="path70"
         style="fill:#6d6e71;fill-opacity:1;fill-rule:nonzero;stroke:none"
         d="m 3172.15,53.3594 h -27.66 v 63.7496 c 0,3.512 -0.62,6.719 -1.87,9.532 -1.25,2.89 -2.97,5.39 -5.16,7.5 -2.11,2.07 -4.61,3.629 -7.5,4.687 -2.81,1.133 -5.9,1.723 -9.22,1.723 h -48.28 V 53.3594 h -27.5 V 154.449 c 0,1.879 0.31,3.641 0.94,5.321 0.7,1.64 1.72,3.121 2.97,4.371 1.33,1.25 2.85,2.187 4.53,2.808 1.64,0.711 3.48,1.102 5.47,1.102 h 62.18 c 3.44,0 7.07,-0.43 10.94,-1.25 3.83,-0.75 7.66,-2 11.41,-3.75 3.83,-1.68 7.5,-3.871 10.94,-6.571 3.43,-2.609 6.44,-5.859 9.06,-9.679 2.69,-3.75 4.84,-8.129 6.4,-13.129 1.57,-4.922 2.35,-10.434 2.35,-16.563 z" /><path
         id="path72"
         style="fill:#6d6e71;fill-opacity:1;fill-rule:nonzero;stroke:none"
         d="m 3297.54,140.551 h -48.28 V 53.3594 h -27.81 v 87.1916 h -35.94 v 27.5 h 35.94 v 37.5 h 27.81 v -37.5 h 48.28 z" /><path
         id="path74"
         style="fill:#6d6e71;fill-opacity:1;fill-rule:nonzero;stroke:none"
         d="m 3440.27,92.1094 c 0,-4.8086 -0.62,-9.0586 -1.87,-12.8086 -1.17,-3.75 -2.78,-7.1094 -4.85,-10 -1.99,-2.8203 -4.29,-5.2813 -6.87,-7.3516 -2.62,-1.9883 -5.39,-3.5898 -8.28,-4.8398 -2.81,-1.25 -5.7,-2.1875 -8.6,-2.8086 -2.92,-0.6289 -5.7,-0.9414 -8.28,-0.9414 h -49.84 c -3.87,0 -8.05,0.6601 -12.5,2.0312 -4.49,1.3282 -8.67,3.5196 -12.5,6.5586 -3.87,3.1289 -7.11,7.1094 -9.69,12.0313 -2.61,4.8906 -3.9,10.9414 -3.9,18.1289 v 37.3396 c 0,7.071 1.29,13.051 3.9,17.973 2.58,4.879 5.82,8.828 9.69,11.879 3.83,3.121 8.01,5.347 12.5,6.719 4.45,1.32 8.63,2.031 12.5,2.031 h 49.84 c 7.07,0 13.05,-1.332 17.97,-3.91 5,-2.5 8.99,-5.7 12.03,-9.532 3.01,-3.871 5.2,-8.089 6.57,-12.66 1.44,-4.488 2.18,-8.668 2.18,-12.5 z m -27.65,37.1916 c 0,3.75 -1.02,6.558 -2.97,8.429 -1.88,1.879 -4.61,2.821 -8.13,2.821 h -49.53 c -3.75,0 -6.56,-0.942 -8.44,-2.821 -1.87,-1.871 -2.81,-4.64 -2.81,-8.281 V 92.1094 c 0,-3.668 0.94,-6.4102 2.81,-8.2813 1.88,-1.8789 4.69,-2.8086 8.44,-2.8086 h 49.53 c 3.75,0 6.49,0.9297 8.28,2.8086 1.88,1.8711 2.82,4.6133 2.82,8.2813 z" /><path
         id="path76"
         style="fill:#6d6e71;fill-opacity:1;fill-rule:nonzero;stroke:none"
         d="m 3574.57,92.1094 c 0,-4.8086 -0.62,-9.0586 -1.87,-12.8086 -1.18,-3.75 -2.78,-7.1094 -4.85,-10 -1.99,-2.8203 -4.3,-5.2813 -6.87,-7.3516 -2.62,-1.9883 -5.39,-3.5898 -8.28,-4.8398 -2.82,-1.25 -5.71,-2.1875 -8.6,-2.8086 -2.93,-0.6289 -5.7,-0.9414 -8.28,-0.9414 h -74.69 v 27.6601 h 74.38 c 3.75,0 6.56,0.9297 8.44,2.8086 1.95,1.8711 2.96,4.6133 2.96,8.2813 -0.31,7.3789 -4.02,11.0896 -11.09,11.0896 h -42.81 c -6.06,0 -11.21,1.02 -15.47,3.129 -4.3,2.07 -7.77,4.692 -10.47,7.813 -2.62,3.199 -4.49,6.64 -5.62,10.308 -1.18,3.75 -1.72,7.231 -1.72,10.473 0,6.129 1.09,11.289 3.28,15.469 2.19,4.257 4.92,7.699 8.28,10.308 3.32,2.582 6.91,4.461 10.78,5.629 3.83,1.133 7.5,1.723 10.94,1.723 h 67.81 v -27.5 h -67.66 c -1.36,0 -2.46,-0.16 -3.28,-0.473 -0.86,-0.308 -1.48,-0.777 -1.87,-1.406 -0.31,-0.551 -0.55,-1.094 -0.63,-1.723 -0.11,-0.539 -0.15,-1.09 -0.15,-1.719 0.07,-1.171 0.31,-2.031 0.62,-2.652 0.39,-0.629 0.86,-1.098 1.41,-1.406 0.51,-0.231 1.09,-0.391 1.72,-0.473 0.7,0 1.4,0 2.03,0 h 42.81 c 7.07,0 13.05,-1.32 17.97,-3.898 5,-2.5 8.98,-5.711 12.03,-9.531 3.01,-3.872 5.2,-8.09 6.56,-12.661 1.45,-4.488 2.19,-8.6676 2.19,-12.4996 z" /></g></g></svg>